<svg width="40" height="40" viewBox="0 0 40 40" fill="none" xmlns="http://www.w3.org/2000/svg">
<path d="M1.78773 0C1.31361 4.5373e-05 0.858919 0.180336 0.523666 0.50122C0.188412 0.822104 4.74049e-05 1.2573 0 1.7111V29.0887C4.74049e-05 29.5425 0.188412 29.9777 0.523666 30.2986C0.858919 30.6195 1.31361 30.7998 1.78773 30.7998H14.2983V34.222H6.84714C6.39305 34.222 5.95579 34.3888 5.62506 34.6866L2.07055 37.8782C1.47881 38.4069 1.87524 39.3553 2.68508 39.3553H36.6449C37.4548 39.3553 37.8512 38.4053 37.2595 37.8748L33.7049 34.6832C33.3724 34.3872 32.9369 34.222 32.4829 34.222H25.0247V30.7998H37.5423C38.0164 30.7998 38.4711 30.6195 38.8063 30.2986C39.1416 29.9777 39.33 29.5425 39.33 29.0887V1.7111C39.33 1.2573 39.1416 0.822104 38.8063 0.50122C38.4711 0.180336 38.0164 4.5373e-05 37.5423 0H1.78773ZM3.57545 3.4222H35.7545V27.3776H3.57545V3.4222ZM14.2669 8.5388C13.8025 8.55204 13.3616 8.73783 13.0378 9.0568L7.67466 14.1901C7.33952 14.511 7.15125 14.9462 7.15125 15.3999C7.15125 15.8536 7.33952 16.2888 7.67466 16.6097L13.0378 21.743C13.2026 21.9072 13.3999 22.0383 13.6182 22.1287C13.8365 22.219 14.0715 22.2667 14.3094 22.269C14.5472 22.2713 14.7831 22.2282 15.0033 22.1422C15.2235 22.0561 15.4236 21.9289 15.5918 21.7679C15.76 21.6069 15.8929 21.4154 15.9828 21.2047C16.0727 20.9939 16.1178 20.7681 16.1154 20.5404C16.1129 20.3128 16.0631 20.0879 15.9687 19.8789C15.8744 19.6699 15.7374 19.4811 15.5658 19.3234L11.4666 15.3999L15.5658 11.4764C15.8241 11.2361 16.0006 10.9266 16.072 10.5886C16.1434 10.2507 16.1065 9.89992 15.9661 9.58237C15.8257 9.26481 15.5884 8.99526 15.2851 8.80905C14.9819 8.62283 14.627 8.52863 14.2669 8.5388ZM25.0107 8.5388C24.6551 8.53888 24.3076 8.64049 24.0126 8.83061C23.7176 9.02074 23.4885 9.29075 23.3547 9.60613C23.2209 9.92151 23.1884 10.2679 23.2613 10.6011C23.3342 10.9342 23.5093 11.239 23.7642 11.4764L27.8634 15.3999L23.7642 19.3234C23.5926 19.4811 23.4556 19.6699 23.3613 19.8789C23.2669 20.0879 23.2171 20.3128 23.2146 20.5404C23.2122 20.7681 23.2573 20.9939 23.3472 21.2047C23.4371 21.4154 23.57 21.6069 23.7382 21.7679C23.9064 21.9289 24.1065 22.0561 24.3267 22.1422C24.5469 22.2282 24.7828 22.2713 25.0206 22.269C25.2585 22.2667 25.4935 22.219 25.7118 22.1287C25.9301 22.0383 26.1274 21.9072 26.2922 21.743L31.6553 16.6097C31.9905 16.2888 32.1787 15.8536 32.1787 15.3999C32.1787 14.9462 31.9905 14.511 31.6553 14.1901L26.2922 9.0568C26.1256 8.89289 25.9263 8.7626 25.7062 8.67363C25.4861 8.58466 25.2496 8.53881 25.0107 8.5388Z" fill="#666666"/>
</svg>
