<svg width="41" height="38" viewBox="0 0 41 38" fill="none" xmlns="http://www.w3.org/2000/svg">
<path d="M12.3056 28.375V26.8125C12.3056 24.7405 13.1689 22.7534 14.7057 21.2882C16.2424 19.8231 18.3267 19 20.5 19M20.5 19C22.6733 19 24.7576 19.8231 26.2944 21.2882C27.8311 22.7534 28.6945 24.7405 28.6945 26.8125V28.375M20.5 19C21.804 19 23.0546 18.5061 23.9766 17.6271C24.8987 16.748 25.4167 15.5557 25.4167 14.3125C25.4167 13.0693 24.8987 11.877 23.9766 10.9979C23.0546 10.1189 21.804 9.625 20.5 9.625C19.196 9.625 17.9455 10.1189 17.0234 10.9979C16.1013 11.877 15.5833 13.0693 15.5833 14.3125C15.5833 15.5557 16.1013 16.748 17.0234 17.6271C17.9455 18.5061 19.196 19 20.5 19ZM2.47223 28.375V26.8125C2.47223 25.5693 2.99023 24.377 3.91229 23.4979C4.83434 22.6189 6.08491 22.125 7.3889 22.125M7.3889 22.125C8.25822 22.125 9.09193 21.7958 9.70663 21.2097C10.3213 20.6237 10.6667 19.8288 10.6667 19C10.6667 18.1712 10.3213 17.3763 9.70663 16.7903C9.09193 16.2042 8.25822 15.875 7.3889 15.875C6.51957 15.875 5.68586 16.2042 5.07116 16.7903C4.45645 17.3763 4.11112 18.1712 4.11112 19C4.11112 19.8288 4.45645 20.6237 5.07116 21.2097C5.68586 21.7958 6.51957 22.125 7.3889 22.125ZM38.5278 28.375V26.8125C38.5278 25.5693 38.0098 24.377 37.0877 23.4979C36.1657 22.6189 34.9151 22.125 33.6111 22.125M33.6111 22.125C34.4804 22.125 35.3142 21.7958 35.9289 21.2097C36.5436 20.6237 36.8889 19.8288 36.8889 19C36.8889 18.1712 36.5436 17.3763 35.9289 16.7903C35.3142 16.2042 34.4804 15.875 33.6111 15.875C32.7418 15.875 31.9081 16.2042 31.2934 16.7903C30.6787 17.3763 30.3333 18.1712 30.3333 19C30.3333 19.8288 30.6787 20.6237 31.2934 21.2097C31.9081 21.7958 32.7418 22.125 33.6111 22.125Z" stroke="#666666" stroke-width="1.5" stroke-linecap="round" stroke-linejoin="round"/>
</svg>
