<svg width="41" height="38" viewBox="0 0 41 38" fill="none" xmlns="http://www.w3.org/2000/svg">
<g clip-path="url(#clip0_32_4)">
<path d="M36.2334 11.056C36.2334 10.6441 35.7144 10.3089 35.0764 10.3089H21.0667L19.2027 8.90405C19.7231 8.74221 20.084 8.39917 20.084 8.00179C20.084 7.44941 19.3883 7 18.5334 7C17.6784 7 16.9828 7.44941 16.9828 8.00179C16.9828 8.39917 17.3437 8.74221 17.864 8.90405L16.0001 10.3089H1.99033C1.68085 10.3089 1.39009 10.3866 1.17096 10.528C0.95331 10.6695 0.833374 10.857 0.833374 11.056C0.833374 11.4265 1.25384 11.734 1.80254 11.7922C2.80471 12.5689 7.01445 15.544 13.8318 16.5522V17.6899H13.0187C12.8151 17.6899 12.65 17.7965 12.65 17.928V19.2006C12.65 19.3321 12.8151 19.4387 13.0187 19.4387H14.2255V20.9982H12.6251C12.4214 20.9982 12.2563 21.1048 12.2563 21.2363C12.2563 21.3678 12.4214 21.4744 12.6251 21.4744H14.2254V23.0346H12.6251C12.4214 23.0346 12.2563 23.1412 12.2563 23.2727C12.2563 23.4041 12.4214 23.5107 12.6251 23.5107H14.2254V25.0709H12.6251C12.4214 25.0709 12.2563 25.1775 12.2563 25.309C12.2563 25.4405 12.4214 25.5471 12.6251 25.5471H14.5941H15.0137V26.8524H13.8069C13.6033 26.8524 13.4382 26.959 13.4382 27.0905C13.4382 27.222 13.6033 27.3286 13.8069 27.3286H15.0137V28.634H12.2056V27.3447C12.2056 27.2132 12.0405 27.1066 11.8369 27.1066H9.86775C9.66411 27.1066 9.499 27.2132 9.499 27.3447V28.8721V36.762C9.499 36.7645 9.50001 36.767 9.5002 36.7695C9.50066 36.7781 9.50232 36.7865 9.50416 36.795C9.50573 36.8022 9.50702 36.8094 9.5096 36.8164C9.51237 36.824 9.51642 36.8314 9.52039 36.8389C9.52426 36.8461 9.52776 36.8533 9.53255 36.8601C9.53744 36.867 9.54352 36.8735 9.54942 36.8802C9.55551 36.887 9.56141 36.8938 9.56842 36.9001C9.57496 36.906 9.58252 36.9114 9.5899 36.917C9.59856 36.9234 9.60713 36.9297 9.61681 36.9355C9.61976 36.9373 9.62188 36.9394 9.62493 36.9411C9.6311 36.9446 9.63811 36.9471 9.64456 36.9503C9.65323 36.9546 9.66171 36.9588 9.67093 36.9626C9.68208 36.9672 9.6937 36.971 9.70541 36.9747C9.71416 36.9775 9.72274 36.9805 9.73196 36.9829C9.74578 36.9864 9.75989 36.9889 9.77418 36.9913C9.7822 36.9927 9.78985 36.9945 9.79815 36.9955C9.82119 36.9983 9.84443 37 9.86766 37C9.86766 37 9.86775 37 9.86784 37H23.6545C23.8581 37 24.0232 36.8934 24.0232 36.7619V34.7256V31.4173C24.0232 31.2858 23.8581 31.1792 23.6545 31.1792H22.0532V30.1446V29.1101H23.2599C23.4636 29.1101 23.6287 29.0035 23.6287 28.872C23.6287 28.7405 23.4636 28.6339 23.2599 28.6339H22.0532V27.3286H23.2599C23.4636 27.3286 23.6287 27.2219 23.6287 27.0905C23.6287 26.959 23.4636 26.8524 23.2599 26.8524H22.0532V25.547H22.4727H24.4418C24.6454 25.547 24.8105 25.4404 24.8105 25.3089C24.8105 25.1774 24.6454 25.0708 24.4418 25.0708H22.8413V23.5107H24.4416C24.6452 23.5107 24.8103 23.4041 24.8103 23.2726C24.8103 23.1411 24.6452 23.0345 24.4416 23.0345H22.8413V21.4744H24.4416C24.6452 21.4744 24.8103 21.3678 24.8103 21.2363C24.8103 21.1048 24.6452 20.9982 24.4416 20.9982H22.8413V19.4387H24.048C24.2517 19.4387 24.4168 19.332 24.4168 19.2006V17.9279C24.4168 17.7965 24.2517 17.6898 24.048 17.6898H23.2349V16.519C26.6926 16.0039 31.4733 14.7639 35.2625 11.7925C35.5008 11.7677 35.7207 11.6963 35.8949 11.5838C36.1132 11.4429 36.2334 11.2554 36.2334 11.056ZM18.5334 9.13149L20.0955 10.3089H16.9712L18.5334 9.13149ZM22.4974 17.6899H14.5693V16.6518C15.866 16.8118 17.1971 16.8935 18.5334 16.8935C19.1039 16.8935 20.5767 16.8654 22.4974 16.621V17.6899ZM16.4783 29.3626C16.3997 29.1844 16.2465 29.0237 16.0372 28.8989L18.6233 27.638C18.7121 27.5946 18.8216 27.576 18.9324 27.5859C19.0435 27.5958 19.1422 27.6332 19.2097 27.6909C19.2649 27.7381 19.294 27.7944 19.294 27.8536C19.294 27.94 19.2334 28.019 19.127 28.0707L16.4783 29.3626ZM13.6712 29.1102C13.5245 29.2632 13.4382 29.4428 13.4382 29.6358V32.9608H10.2365V32.1643H11.8369C12.0405 32.1643 12.2056 32.0577 12.2056 31.9262V29.1102H13.6712ZM11.4681 27.5828V28.634H10.2365V27.5828H11.4681ZM23.2856 31.6554V34.6362L21.2658 36.1279V34.7257C21.2658 34.6264 21.1706 34.5376 21.0267 34.5027C20.8826 34.4678 20.7206 34.4942 20.6194 34.5689L18.5086 36.1279V34.7257C18.5086 34.6264 18.4133 34.5376 18.2694 34.5027C18.1254 34.4678 17.9634 34.4942 17.8622 34.5689L15.7512 36.1279V34.7257C15.7512 34.6264 15.656 34.5376 15.5121 34.5027C15.368 34.4678 15.2061 34.4942 15.1048 34.5689L12.9939 36.1279V34.7257C12.9939 34.6264 12.8987 34.5376 12.7548 34.5027C12.6108 34.4678 12.4487 34.4942 12.3475 34.5689L10.2365 36.1279V33.437H13.8069C14.0106 33.437 14.1757 33.3304 14.1757 33.1989V30.4867C14.4124 30.5813 14.6904 30.637 14.9887 30.637C15.3706 30.637 15.7371 30.5452 16.0186 30.3828H17.3069C17.1035 30.5672 16.9827 30.792 16.9827 31.0352C16.9827 31.6578 17.7668 32.1643 18.7306 32.1643C19.6938 32.1643 20.4775 31.6578 20.4775 31.0352C20.4775 30.792 20.3567 30.5672 20.1535 30.3828H21.3155V31.4173C21.3155 31.5488 21.4806 31.6554 21.6842 31.6554H23.2856ZM21.3156 29.9066H16.5866L19.571 28.4509C19.8636 28.3086 20.0314 28.0909 20.0314 27.8536C20.0314 27.6903 19.9509 27.5349 19.7983 27.4041C19.6115 27.2446 19.3398 27.1416 19.0334 27.1143C18.7272 27.0871 18.4238 27.1382 18.1785 27.2583L15.7512 28.4417V25.5471H21.3155L21.3156 29.9066ZM22.1038 25.0709H14.963V19.4387H22.1039V25.0709H22.1038ZM35.3734 11.2472C35.2939 11.2985 35.1884 11.3268 35.0764 11.3268H1.99033C1.75903 11.3268 1.57087 11.2053 1.57087 11.056C1.57087 10.9836 1.61476 10.9153 1.6933 10.8642C1.77221 10.8132 1.87777 10.7851 1.99033 10.7851H35.0764C35.3077 10.7851 35.4959 10.9066 35.4959 11.0559C35.4959 11.1282 35.4524 11.1961 35.3734 11.2472Z" fill="#666666"/>
</g>
<defs>
<clipPath id="clip0_32_4">
<rect width="39.3333" height="37.5" fill="white" transform="translate(0.833374 0.25)"/>
</clipPath>
</defs>
</svg>
