<svg width="41" height="38" viewBox="0 0 41 38" fill="none" xmlns="http://www.w3.org/2000/svg">
<g clip-path="url(#clip0_32_20)">
<path fill-rule="evenodd" clip-rule="evenodd" d="M11.2118 1.79822H14.0213C14.3939 1.79822 14.7512 1.93932 15.0146 2.19049C15.278 2.44165 15.426 2.7823 15.426 3.1375V7.825H9.807V3.1375C9.807 2.7823 9.955 2.44165 10.2184 2.19049C10.4819 1.93932 10.8392 1.79822 11.2118 1.79822ZM9.10462 10.4232C8.73206 10.4232 8.37475 10.5643 8.1113 10.8155C7.84786 11.0666 7.69986 11.4073 7.69986 11.7625V21.1375C7.69983 21.5025 7.77579 21.8639 7.92332 22.2008C8.07085 22.5376 8.28703 22.8432 8.55932 23.0998C8.83162 23.3564 9.15462 23.559 9.50961 23.6957C9.86461 23.8325 10.2445 23.9007 10.6274 23.8964L14.7265 23.8509C16.283 23.8321 17.536 22.6241 17.536 21.1402V17.2643H21.8121C23.0004 17.2639 24.1771 17.4868 25.275 17.9201C26.3729 18.3533 27.3705 18.9886 28.2109 19.7895C29.0512 20.5905 29.7179 21.5414 30.1727 22.588C30.6275 23.6346 30.8616 24.7564 30.8616 25.8893V27.8179H5.59272C5.03387 27.8179 4.49791 28.0295 4.10274 28.4063C3.70758 28.783 3.48557 29.294 3.48557 29.8268C3.48557 30.3596 3.70758 30.8706 4.10274 31.2473C4.49791 31.6241 5.03387 31.8357 5.59272 31.8357H14.1646C14.1646 32.4946 13.8611 33.3893 13.3105 34.2652C12.6587 34.8625 11.9338 35.1839 11.2118 35.1839H2.92648C2.36763 35.1839 1.83167 35.3956 1.4365 35.7723C1.04134 36.1491 0.819336 36.6601 0.819336 37.1929C0.819336 37.7257 1.04134 38.2366 1.4365 38.6134C1.83167 38.9901 2.36763 39.2018 2.92648 39.2018H36.4975C37.0563 39.2018 37.5923 38.9901 37.9875 38.6134C38.3826 38.2366 38.6046 37.7257 38.6046 37.1929V25.967C38.6046 21.8457 36.8876 17.8932 33.8312 14.9787C30.7748 12.0643 26.6293 10.4266 22.3066 10.4259H16.2183C16.1884 10.425 16.1584 10.425 16.1284 10.4259H9.10462V10.4232Z" fill="#666666"/>
</g>
<defs>
<clipPath id="clip0_32_20">
<rect width="39.3333" height="37.5" fill="white" transform="translate(0.833374 0.25)"/>
</clipPath>
</defs>
</svg>
