<svg width="40" height="39" viewBox="0 0 40 39" fill="none" xmlns="http://www.w3.org/2000/svg">
<path d="M20.1667 0.75C9.32238 0.75 0.5 9.16117 0.5 19.5C0.5 29.8388 9.32238 38.25 20.1667 38.25C31.011 38.25 39.8333 29.8388 39.8333 19.5C39.8333 9.16117 31.011 0.75 20.1667 0.75ZM20.1667 36.6543C10.2455 36.6543 2.17376 28.9588 2.17376 19.5C2.17376 10.0412 10.2455 2.34574 20.1667 2.34574C30.0879 2.34574 38.1596 10.0412 38.1596 19.5C38.1596 28.9588 30.0879 36.6543 20.1667 36.6543ZM18.7134 21.2856C20.6993 21.2856 22.3103 19.4944 22.3103 17.2855C22.3103 15.0762 20.6993 13.2854 18.7134 13.2854C16.7267 13.2854 15.1165 15.0762 15.1165 17.2855C15.1169 19.494 16.7267 21.2856 18.7134 21.2856ZM25.3352 25.115C24.4151 24.5035 21.8241 23.1008 18.7825 23.084V23.082C18.7733 23.082 18.7645 23.0832 18.7549 23.0832C18.7461 23.0832 18.7369 23.082 18.7281 23.082V23.084C15.686 23.1008 13.095 24.5035 12.1753 25.115C12.0494 25.1988 11.9586 25.2686 11.8682 25.4593C11.7945 25.6153 11.7979 25.9332 11.7979 25.9332V28.3963H25.7122V25.9332C25.7122 25.9332 25.716 25.6153 25.6415 25.4593C25.5516 25.2686 25.4608 25.1988 25.3352 25.115ZM28.6451 10.6037H27.4212V13.6907H24.1837V14.8572H27.4212V17.9441H28.6451V14.8572H31.883V13.6907H28.6451V10.6037Z" fill="#666666"/>
</svg>
