<svg width="41" height="38" viewBox="0 0 41 38" fill="none" xmlns="http://www.w3.org/2000/svg">
<g clip-path="url(#clip0_32_39)">
<path d="M22.5527 7.28829C24.5882 7.27423 29.1607 7.28829 29.1607 7.28829L29.2418 7.35861V8.03361C29.2418 8.22111 29.1328 8.31486 28.9149 8.31486C27.8504 8.36173 27.6316 8.46251 27.2432 8.99454C27.0293 9.28986 26.6089 9.91564 26.1738 10.6211L22.4371 17.2844L22.3314 17.493L26.899 26.4016L27.1768 26.4742L34.3699 10.1945C34.619 9.53829 34.5829 9.07345 34.2617 8.80001C33.9372 8.53282 33.7111 8.37814 32.8777 8.34298L32.2016 8.31017C32.1157 8.30815 32.0328 8.27934 31.9656 8.22814C31.931 8.20696 31.9025 8.17784 31.8828 8.14345C31.863 8.10905 31.8526 8.07048 31.8526 8.03126V7.35392L31.9558 7.28361H40.0831L40.1666 7.35392V8.03361C40.1666 8.21642 40.0577 8.30782 39.8397 8.30782C38.7744 8.3547 37.9861 8.57423 37.4748 8.96642C36.9286 9.40538 36.5146 9.97481 36.2751 10.6164C36.2751 10.6164 29.6597 25.0539 27.3956 29.8539C26.5278 31.4289 25.6748 31.2836 24.9274 29.8094C23.4586 26.852 22.0187 23.8815 20.6081 20.8985C19.0766 23.9102 16.9821 27.9906 15.9422 29.8281C14.9319 31.5039 14.0985 31.2859 13.4347 29.8727C12.3285 27.3766 10.6544 23.9688 8.96794 20.5399C7.16106 16.8625 5.3419 13.1594 4.1914 10.5274C3.78085 9.58986 3.4711 8.98751 3.17856 8.74845C2.88356 8.51407 2.27226 8.37345 1.34465 8.32657C1.00376 8.28751 0.833313 8.20548 0.833313 8.08048V7.37032L0.916896 7.30001C2.42877 7.29298 9.75215 7.30001 9.75215 7.30001L9.83573 7.37032V8.04532C9.83573 8.23126 9.71281 8.32345 9.46698 8.32189L8.5451 8.35939C7.75352 8.39064 7.35773 8.61564 7.35773 9.03439C7.35445 9.2297 7.44377 9.5422 7.62569 9.97189C9.39569 14.0805 15.5096 26.3734 15.5096 26.3734L15.7333 26.4274L19.674 18.9344L18.8873 17.2703L16.1733 12.1914C16.1733 12.1914 15.6497 11.1766 15.4702 10.8391L15.2293 10.3797C14.2779 8.57501 14.2189 8.45782 13.1029 8.3172C12.7661 8.27736 12.5915 8.23517 12.5915 8.07814V7.36564L12.6923 7.29532H19.7059L19.8903 7.35157V8.06173C19.8903 8.22423 19.7674 8.30548 19.5216 8.30548L19.0151 8.37579C17.7294 8.46954 17.9384 8.97111 18.7939 10.593L21.3924 15.6625L24.2686 10.1969C24.748 9.19611 24.6496 8.94532 24.4505 8.71329C24.3374 8.58439 23.9539 8.37579 23.123 8.34298L22.7961 8.30782C22.7104 8.30648 22.6275 8.2785 22.5601 8.22814C22.5255 8.20647 22.4973 8.17686 22.478 8.14204C22.4586 8.10722 22.4488 8.06831 22.4494 8.02892V7.35392L22.5502 7.28361L22.5527 7.28829Z" fill="#666666"/>
</g>
<defs>
<clipPath id="clip0_32_39">
<rect width="39.3333" height="37.5" fill="white" transform="translate(0.833313 0.25)"/>
</clipPath>
</defs>
</svg>
